<?xml version="1.0" encoding="iso-8859-1"?>
<!-- Uploaded to: SVG Repo, www.svgrepo.com, Generator: SVG Repo Mixer Tools -->
<svg height="800px" width="800px" version="1.1" id="Layer_1" xmlns="http://www.w3.org/2000/svg" xmlns:xlink="http://www.w3.org/1999/xlink" 
	 viewBox="0 0 512 512" xml:space="preserve">
<path style="fill:#820000;" d="M0,256.006C0,397.402,114.606,512.004,255.996,512C397.394,512.004,512,397.402,512,256.006
	C512.009,114.61,397.394,0,255.996,0C114.606,0,0,114.614,0,256.006z"/>
<path style="fill:#820000;" d="M512,256.005c0-5.435-0.226-10.813-0.56-16.164c0,0-86.201-86.199-86.202-86.201
	c0,0-1.632-1.63-1.632-1.633l-63.629-63.615c-2.762-2.763-7.235-2.763-9.998,0L256,182.359l-93.981-93.966
	c-2.762-2.763-7.235-2.763-9.998,0l-63.629,63.615c-1.326,1.326-2.071,3.121-2.071,5.001c0,1.87,0.746,3.671,2.071,4.997
	l1.632,1.633l58.078,58.086L182.373,256l-93.98,93.966c-2.762,2.762-2.762,7.235,0,9.998c0,0,65.261,65.276,65.262,65.276
	c0,0,84.868,84.868,84.869,84.869l1.333,1.333c5.342,0.332,10.713,0.557,16.138,0.557C397.394,512.004,512,397.401,512,256.005z"/>
<path style="fill:#F4F6F9;" d="M329.627,256l93.981-93.995c1.326-1.326,2.071-3.127,2.071-4.998c0-1.878-0.746-3.673-2.071-4.998
	l-63.63-63.616c-2.762-2.762-7.235-2.762-9.997,0L256,182.359l-93.981-93.967c-2.762-2.762-7.235-2.762-9.997,0l-63.63,63.616
	c-1.326,1.326-2.071,3.121-2.071,4.998c0,1.871,0.746,3.673,2.071,4.998L182.373,256l-93.981,93.967
	c-2.762,2.762-2.762,7.235,0,9.997l63.63,63.643c1.326,1.326,3.121,2.071,4.998,2.071c1.878,0,3.673-0.746,4.998-2.071L256,329.613
	l93.981,93.995c1.326,1.326,3.121,2.071,4.998,2.071c1.878,0,3.673-0.746,4.998-2.071l63.63-63.643c2.762-2.762,2.762-7.235,0-9.997
	L329.627,256z M354.979,408.611l-93.981-93.995c-1.326-1.326-3.121-2.071-4.998-2.071c-1.877,0-3.673,0.746-4.998,2.071
	l-93.981,93.995l-53.632-53.646l93.981-93.967c1.326-1.326,2.071-3.121,2.071-4.998c0-1.877-0.746-3.673-2.071-4.998l-93.981-93.995
	l53.632-53.618l93.981,93.967c2.762,2.762,7.235,2.762,9.997,0l93.981-93.967l53.632,53.618l-93.981,93.995
	c-1.326,1.326-2.071,3.121-2.071,4.998c0,1.877,0.746,3.673,2.071,4.998l93.981,93.967L354.979,408.611z"/>
</svg>